<?xml version="1.0" encoding="UTF-8" standalone="no"?>
<!-- Generator: Adobe Illustrator 23.1.0, SVG Export Plug-In . SVG Version: 6.00 Build 0)  -->

<svg
   xmlns:dc="http://purl.org/dc/elements/1.1/"
   xmlns:cc="http://creativecommons.org/ns#"
   xmlns:rdf="http://www.w3.org/1999/02/22-rdf-syntax-ns#"
   xmlns:svg="http://www.w3.org/2000/svg"
   xmlns="http://www.w3.org/2000/svg"
   xmlns:sodipodi="http://sodipodi.sourceforge.net/DTD/sodipodi-0.dtd"
   xmlns:inkscape="http://www.inkscape.org/namespaces/inkscape"
   version="1.1"
   id="Layer_1"
   x="0px"
   y="0px"
   viewBox="0 0 173.33332 173.33332"
   xml:space="preserve"
   sodipodi:docname="ST Blue MS about.svg"
   width="130pt"
   height="130pt"
   inkscape:version="0.92.1 r15371"><metadata
     id="metadata5305"><rdf:RDF><cc:Work
         rdf:about=""><dc:format>image/svg+xml</dc:format><dc:type
           rdf:resource="http://purl.org/dc/dcmitype/StillImage" /><dc:title></dc:title></cc:Work></rdf:RDF></metadata><defs
     id="defs5303" /><sodipodi:namedview
     pagecolor="#ffffff"
     bordercolor="#666666"
     borderopacity="1"
     objecttolerance="10"
     gridtolerance="10"
     guidetolerance="10"
     inkscape:pageopacity="0"
     inkscape:pageshadow="2"
     inkscape:window-width="1920"
     inkscape:window-height="1017"
     id="namedview5301"
     showgrid="false"
     units="pt"
     inkscape:zoom="0.66604437"
     inkscape:cx="354.31049"
     inkscape:cy="516.38223"
     inkscape:window-x="-8"
     inkscape:window-y="-8"
     inkscape:window-maximized="1"
     inkscape:current-layer="Layer_1" /><path
     style="fill:#39a9db;stroke-width:0.09407411"
     d="M 86.666574,0 A 66.666651,66.666651 0 0 0 20,66.6665 66.666651,66.666651 0 0 0 86.666574,133.3333 66.666651,66.666651 0 0 0 153.33333,66.6665 66.666651,66.666651 0 0 0 86.666574,0 Z m 0.005,28.9899 h 1.31851 c 2.76888,0 45.144366,11.6874 45.144366,11.6874 0,0 -34.969106,34.5733 -46.838256,46.427 -7.8153,-2.8723 -15.21703,-5.5269 -23.15839,-8.2756 7.53317,3.1557 15.62431,5.726 23.25504,8.7864 16.029006,-15.4567 32.079076,-30.8314 47.609576,-46.7879 0.74356,1.7004 -1.44804,2.4738 -1.43609,4.1731 -15.01649,14.4191 -30.33225,28.7716 -44.825216,43.7119 -0.58777,0.4474 -1.38208,1.5741 -1.78171,1.7586 -0.78006,0.3601 -43.596754,-15.5842 -43.219517,-15.5961 -0.820891,-0.363 -1.979286,-0.405 -3.043076,-0.06 -1.611208,1.4124 -1.398049,5.0174 -0.505098,6.33 2.264082,3.3283 8.271603,5.6266 14.093661,7.7874 11.28965,4.1921 35.38172,12.1072 35.40788,12.7402 15.235386,-14.6392 45.440956,-46.3344 44.941326,-46.5676 0.57103,-0.051 3.03187,0.6997 3.03187,1.3172 0,0.4403 -0.49758,0.6486 -0.57142,0.6486 -15.50549,17.9797 -31.20727,33.9395 -46.787726,47.2728 -0.0714,0 -24.48033,-9.127 -36.097263,-13.5259 -7.554715,-2.863 -16.543629,-4.3138 -16.543629,-12.8668 v -3.076 c 0,-0.8697 0.162915,-1.5932 0.510425,-2.4178 2.587132,-2.7263 34.555707,-31.3878 40.928847,-37.3087 2.09532,-1.9502 6.07199,-6.1583 8.56589,-6.1583 z m -10.72757,63.6775 c 1.69334,0.2855 3.04735,0.9065 4.61331,1.3183 -0.6557,-0.5164 -1.49342,-0.8496 -2.19549,-1.3183 3.01291,0.2808 6.42899,2.0608 9.44416,3.0734 0.12737,0.3867 0.22021,1.0858 0.22012,1.3172 -3.96466,-0.5735 -7.96504,-3.0177 -12.0821,-4.1718 -0.43547,-0.2 0,-0.2188 0,-0.2188 z"
     id="circle5292"
     inkscape:connector-curvature="0" /><g
     id="g5298"
     transform="translate(0,-1243.9898)" /></svg>