<?xml version="1.0" encoding="UTF-8" standalone="no"?>
<!-- Created with Inkscape (http://www.inkscape.org/) -->

<svg
   xmlns:dc="http://purl.org/dc/elements/1.1/"
   xmlns:cc="http://creativecommons.org/ns#"
   xmlns:rdf="http://www.w3.org/1999/02/22-rdf-syntax-ns#"
   xmlns:svg="http://www.w3.org/2000/svg"
   xmlns="http://www.w3.org/2000/svg"
   xmlns:sodipodi="http://sodipodi.sourceforge.net/DTD/sodipodi-0.dtd"
   xmlns:inkscape="http://www.inkscape.org/namespaces/inkscape"
   width="200pt"
   height="200pt"
   viewBox="0 0 70.555558 70.555555"
   version="1.1"
   id="svg4022"
   inkscape:version="0.92.1 r15371"
   sodipodi:docname="ST NFC DiscoveryButton.svg">
  <defs
     id="defs4016" />
  <sodipodi:namedview
     id="base"
     pagecolor="#ffffff"
     bordercolor="#666666"
     borderopacity="1.0"
     inkscape:pageopacity="0.0"
     inkscape:pageshadow="2"
     inkscape:zoom="0.35"
     inkscape:cx="-75.714286"
     inkscape:cy="560"
     inkscape:document-units="mm"
     inkscape:current-layer="g4088"
     showgrid="false"
     units="pt"
     inkscape:window-width="1920"
     inkscape:window-height="1017"
     inkscape:window-x="-8"
     inkscape:window-y="-8"
     inkscape:window-maximized="1" />
  <metadata
     id="metadata4019">
    <rdf:RDF>
      <cc:Work
         rdf:about="">
        <dc:format>image/svg+xml</dc:format>
        <dc:type
           rdf:resource="http://purl.org/dc/dcmitype/StillImage" />
        <dc:title></dc:title>
      </cc:Work>
    </rdf:RDF>
  </metadata>
  <g
     inkscape:label="Layer 1"
     inkscape:groupmode="layer"
     id="layer1"
     transform="translate(0,-226.44445)">
    <g
       id="g4088"
       transform="matrix(0.26458333,0,0,0.26458333,-191.27965,-122.57727)">
      <g
         id="g4915"
         transform="matrix(0.15992599,0,0,0.15992599,742.94681,1319.1371)">
        <path
           id="circle4024"
           transform="translate(722.94672,463.28418)"
           d="M -14.285156,-463.2832 A 708.66094,708.66094 0 0 0 -722.94727,245.37695 708.66094,708.66094 0 0 0 -14.285156,954.03711 708.66094,708.66094 0 0 0 694.375,245.37695 708.66094,708.66094 0 0 0 -14.285156,-463.2832 Z m -86.488284,212.60742 c 0.45378,0.0176 0.911721,0.0583 1.371096,0.12305 7.358,1.027 12.49175,7.81892 11.46875,15.16992 -0.366,2.549 -9.156156,63.17109 -48.576176,126.49804 -36.674,58.90202 -107.64978,130.953301 -237.55078,139.654301 -4.055,0.285 -7.77864,-1.255203 -10.43164,-3.908203 -2.228,-2.227 -3.68211,-5.228375 -3.91211,-8.609375 -0.498,-7.427 5.1153,-13.8310311 12.5293,-14.3320311 94.818,-6.3619995 167.49691,-48.8240319 216.00391,-126.2070319 36.698,-58.537 45.19053,-116.25231 45.26953,-116.82031 0.98812,-6.89438 7.02153,-11.8318 13.82812,-11.56836 z m -57.13672,3.61914 c 0.85023,-0.0295 1.71652,0.0249 2.58789,0.17187 6.972,1.183 11.67024,7.80768 10.49024,14.76368 -0.326,1.897 -34.36475,190.157996 -223.34375,208.624996 -3.962,0.386 -7.6945,-1.073406 -10.3125,-3.691406 -2.024,-2.022 -3.38336,-4.736828 -3.69336,-7.798828 -0.684,-7.055 4.47344,-13.31124 11.52344,-13.990234 169.69394,-16.592 200.27231,-185.709968 200.57031,-187.417968 1.036,-6.09875 6.22613,-10.45599 12.17773,-10.66211 z m -58.58007,8.49805 c 0.87389,0.0353 1.75654,0.15882 2.63867,0.37695 7.057,1.745 11.37937,8.8532 9.64844,15.9082 -1.226,4.944 -31.07733,121.44133 -151.11133,142.486331 -4.384,0.781 -8.66652,-0.732922 -11.60352,-3.669922 -1.837,-1.836 -3.15348,-4.262578 -3.64648,-7.017578 -1.251,-7.179 3.54514,-14.007581 10.70507,-15.267581 102.809,-18.019 129.00241,-118.55622 130.06641,-122.82422 1.53125,-6.167 7.18549,-10.23949 13.30274,-9.99218 z m 146.121089,94.27148 H 336.93555 c 45.847,0 83.01367,37.16767 83.01367,83.013672 v 37.25586 H 248.22656 L 214.65234,9.5566406 c -19.34,-9.24699944 -43.19293,-5.9183898 -59.21093,10.0996094 -20.311,20.312 -20.311,53.253453 0,73.564453 20.311,20.310997 53.25245,20.310997 73.56445,0 16.017,-16.018 19.34561,-39.869984 10.09961,-59.208984 l 23.44336,-23.44336 H 419.95117 V 353.44531 h -49.38672 c -7.136,-20.212 -26.35681,-34.72265 -49.00781,-34.72265 -28.725,0 -52.01758,23.29162 -52.01758,52.01562 0,28.724 23.29258,52.01758 52.01758,52.01758 22.651,0 41.87181,-14.51066 49.00781,-34.72266 h 49.38672 v 76.4336 c 0,45.845 -37.16667,83.01172 -83.01367,83.01172 h -525.73828 c -45.846,0 -83.01367,-37.16672 -83.01367,-83.01172 V 50.525391 c 88.419,-34.078 143.31656,-95.19652 176.101559,-147.853516 9.953,-15.988995 18.30675,-31.826985 25.34375,-46.958985 z M -434.58984,440.81445 c 6.82494,0.2343 12.48148,5.60211 12.95117,12.55274 6.363,94.818 48.82403,167.4969 126.20703,216.0039 58.537,36.698 116.25427,45.19149 116.82226,45.27149 7.355,1.054 12.48232,7.84726 11.44532,15.19726 -1.027,7.359 -7.81992,12.49271 -15.16992,11.47071 -2.549,-0.366 -63.17105,-9.15618 -126.49805,-48.57617 -58.902,-36.674 -130.9533,-107.64974 -139.6543,-237.55274 -0.284,-4.055 1.25521,-7.77864 3.90821,-10.43164 2.22699,-2.227 5.22737,-3.68211 8.60937,-3.91211 0.46419,-0.0311 0.92391,-0.0391 1.37891,-0.0234 z m 53.17187,6.18946 c 6.50283,0.0295 12.04024,4.97265 12.67774,11.58203 16.591,169.694 185.70996,200.27231 187.41796,200.57031 6.971,1.184 11.66524,7.79463 10.49024,14.76563 -1.184,6.97198 -7.80863,11.67123 -14.76563,10.49023 -1.897,-0.326 -190.159,-34.36575 -208.625,-223.34375 -0.386,-3.962 1.07536,-7.6935 3.69336,-10.3125 2.022,-2.023 4.73683,-3.38141 7.79883,-3.69141 0.44094,-0.0427 0.87898,-0.0625 1.3125,-0.0605 z m 56.8418,11.48242 c 6.13352,0.17799 11.49906,4.63539 12.60156,10.90039 18.018,102.809 118.55622,129.00045 122.82422,130.06445 7.048,1.751 11.36023,8.88636 9.61523,15.94336 -1.746,7.057 -8.8532,11.37749 -15.9082,9.64649 -4.944,-1.226 -121.44133,-31.07833 -142.48633,-151.11133 -0.781,-4.384 0.73292,-8.66552 3.66992,-11.60352 1.836,-1.836 4.26158,-3.15348 7.01758,-3.64648 0.89738,-0.15638 1.7898,-0.21879 2.66602,-0.19336 z"
           style="fill:#39a9db"
           inkscape:connector-curvature="0" />
        <g
           style="fill:#000000;fill-opacity:1"
           id="g4060">
          <g
             style="fill:#000000;fill-opacity:1"
             id="g4038">
            <g
               style="fill:#000000;fill-opacity:1"
               id="g4028" />
            <g
               style="fill:#000000;fill-opacity:1"
               id="g4032" />
            <g
               style="fill:#000000;fill-opacity:1"
               id="g4036" />
          </g>
          <g
             style="fill:#000000;fill-opacity:1"
             id="g4052">
            <g
               style="fill:#000000;fill-opacity:1"
               id="g4042" />
            <g
               style="fill:#000000;fill-opacity:1"
               id="g4046" />
            <g
               style="fill:#000000;fill-opacity:1"
               id="g4050" />
          </g>
          <g
             style="fill:#000000;fill-opacity:1"
             id="g4058">
            <g
               style="fill:#000000;fill-opacity:1"
               id="g4056" />
          </g>
        </g>
      </g>
    </g>
  </g>
</svg>
