<svg xmlns="http://www.w3.org/2000/svg" viewBox="0 0 16.933 16.933" height="64" width="64"><defs><clipPath id="a"><path d="M0 267h201.333V0H0z"/></clipPath></defs><g clip-path="url(#a)" transform="matrix(.10368 0 0 -.10298 -2.627 22.624)"><path d="M55.355 93.22h50.97l16.891-28.953-.321-.19c-5.077-2.961-10.014-3.228-14.317-3.195l.671 3.75c-2.542-.165-11.431.39-11.431.39l9.935-9.761.72 4.316c4.652-1.672 11.222-2.958 17.382.175l1.22-2.096 2.96 1.73-1.197 2.05.088.053c9.661 5.635 14.04 15.86 10.671 23.663-3.377 7.803-13.605 12.206-24.777.932 9.024 4.525 15.323 5.75 19.51-1.423 4.185-7.171.372-12.978-8.18-18.622l-15.858 27.18h55.075v19.662H55.355zM25.337 157.97c.177-3.373.347-6.697.518-9.975.171-3.242.335-6.444.5-9.6l12.626-21.438c4.436-7.528 8.991-15.264 13.673-23.21V113.115c-4.875 8.002-9.615 15.786-14.222 23.352-4.485 7.357-8.847 14.526-13.095 21.502M186.287 139.24v.102c0 11.185-6.623 20.118-15.064 21.14-8.44 1.02-17.397-5.598-13.29-20.93.639 10.076 2.754 16.133 11.059 16.133s11.402-6.219 11.963-16.446H137.25l-3.594 2.787c-8.628 7.087-16.526 13.566-23.76 19.51H93.094v-22.77H90.91v36.72c-7.476 0 .455.003 0 .01v-.01h1.447c9.899 0 36.746 4.301 36.746 12.346s-17.24 10.516-36.383 10.575c17.4-.51 30.033-4.178 30.033-8.8 0-4.622-13.574-8.547-31.843-8.84v38.928h-3.425v-38.947h-.597c-10.14 0-17.5 1.977-23.893 3.723l4.769 2.435c-9.043.121-18.302 4.07-18.302 4.07 1.273-5.573 2.227-7.659 7.037-11.48l3.437 2.355c5.478-3.008 15.66-6.007 27.549-6.322v-36.763h-2.181v22.77h-58.2c3.614-5.939 7.562-12.417 11.882-19.51 4.754-7.806 10.015-16.446 15.853-26.025H165.367c-9.086 7.452-16.58 13.448-24.332 19.81h39.975v-.378c0-5.875-2.256-10.274-4.455-13.972l-2.901 2.467c-1.14-2.279-6.1-9.676-6.1-9.676l13.442 3.662-3.37 2.797c3.792 3.178 8.216 8.202 8.612 15.1h2.424v3.428z" fill="#39a9dc" fill-rule="evenodd"/></g></svg>