<?xml version="1.0" encoding="UTF-8" standalone="no"?>
<svg
   xmlns:dc="http://purl.org/dc/elements/1.1/"
   xmlns:cc="http://creativecommons.org/ns#"
   xmlns:rdf="http://www.w3.org/1999/02/22-rdf-syntax-ns#"
   xmlns:svg="http://www.w3.org/2000/svg"
   xmlns="http://www.w3.org/2000/svg"
   xmlns:sodipodi="http://sodipodi.sourceforge.net/DTD/sodipodi-0.dtd"
   xmlns:inkscape="http://www.inkscape.org/namespaces/inkscape"
   id="Layer_1"
   data-name="Layer 1"
   viewBox="0 0 266.66667 266.66667"
   version="1.1"
   sodipodi:docname="ST10985_ST_SmarTag_search_button_icon.svg"
   width="200pt"
   height="200pt"
   inkscape:version="0.92.1 r15371">
  <metadata
     id="metadata4516">
    <rdf:RDF>
      <cc:Work
         rdf:about="">
        <dc:format>image/svg+xml</dc:format>
        <dc:type
           rdf:resource="http://purl.org/dc/dcmitype/StillImage" />
        <dc:title>ST_SmarTag_search_button_icon</dc:title>
      </cc:Work>
    </rdf:RDF>
  </metadata>
  <sodipodi:namedview
     pagecolor="#ffffff"
     bordercolor="#666666"
     borderopacity="1"
     objecttolerance="10"
     gridtolerance="10"
     guidetolerance="10"
     inkscape:pageopacity="0"
     inkscape:pageshadow="2"
     inkscape:window-width="1920"
     inkscape:window-height="1017"
     id="namedview4514"
     showgrid="false"
     units="pt"
     inkscape:zoom="2.9916038"
     inkscape:cx="154.76648"
     inkscape:cy="141.73"
     inkscape:window-x="-8"
     inkscape:window-y="-8"
     inkscape:window-maximized="1"
     inkscape:current-layer="Layer_1" />
  <defs
     id="defs4487">
    <style
       id="style4485">.cls-1{fill:#39a9dc;}.cls-2{fill:#bc0;}.cls-3{fill:#002052;}.cls-4{fill:#fff;}</style>
  </defs>
  <title
     id="title4489">ST_SmarTag_search_button_icon</title>
  <g
     id="g4614"
     transform="matrix(0.83338786,0,0,0.83338786,15.220483,1.5260208)">
    <g
       transform="translate(0,-16.793345)"
       id="g4597">
      <g
         id="g4581">
        <path
           inkscape:connector-curvature="0"
           style="fill:#39a9dc;fill-opacity:1"
           id="path3339"
           d="m 203.49219,48.083984 a 72.92,72.92 0 0 0 -7.27149,0.496094 72.92,72.92 0 0 0 -60.26367,48.445313 80.31,80.31 0 0 1 94.42578,92.173829 72.92,72.92 0 0 0 46.83789,-76.7793 72.92,72.92 0 0 0 -73.72851,-64.335936 z" />
        <path
           style="fill:#bbcc00"
           inkscape:connector-curvature="0"
           d="m 7.92,191.91 a 8.92,8.92 0 0 1 -1.85,-8.27 9.06,9.06 0 0 1 17.75,2.94 h 0.07 a 21.24,21.24 0 0 0 7.46,20.11 c 0,0 -17.54,-7 -23.43,-14.77"
           class="cls-2"
           id="path3341" />
        <path
           inkscape:connector-curvature="0"
           style="fill:#002052;fill-opacity:1"
           id="path3343"
           d="M 206.45898,14.978516 A 103.24,103.24 0 0 0 101.53125,112.72461 80.31,80.31 0 0 1 107.94141,108.17188 97.9,97.9 0 0 1 111.88086,89 96.72,96.72 0 0 1 228.7793,24.189453 c 1.11,0.29 2.31101,0.630078 3.79101,1.080078 l 1.78907,-5.86914 c -1.53001,-0.47 -2.81001,-0.840391 -4,-1.150391 a 103.24,103.24 0 0 0 -23.9004,-3.271484 z" />
        <path
           style="fill:#39a9dc"
           inkscape:connector-curvature="0"
           d="m 124.49,93.44 -3.66,-1.16 c 0.41,-1.29 0.79,-2.42 1.17,-3.44 a 87.54,87.54 0 0 1 105.05,-55 c 1.47,0.39 2.94,0.83 4.39,1.29 1.45,0.46 2.95,1 4.33,1.53 a 88.6,88.6 0 0 1 33.85,23 l -2.82,2.6 a 84.66,84.66 0 0 0 -32.4,-22 c -1.32,-0.51 -2.72,-1 -4.15,-1.47 -1.43,-0.47 -2.79,-0.86 -4.19,-1.23 -42.26,-11.37 -85.45,11.25 -100.46,52.59 -0.35,0.98 -0.72,2.05 -1.11,3.29 z"
           class="cls-1"
           id="path3345" />
        <path
           inkscape:connector-curvature="0"
           style="fill:#002052;fill-opacity:1"
           id="path3349"
           d="M 113.43164,76.515625 A 53.45,53.45 0 0 0 71.59375,165.63867 80.31,80.31 0 0 1 152.13867,95.5625 53.45,53.45 0 0 0 113.43164,76.515625 Z" />
        <path
           style="fill:#bbcc00"
           inkscape:connector-curvature="0"
           id="path4499"
           d="m 125.42,113.68 a 1.72,1.72 0 0 0 -3.34,-0.82 c -0.14,0.56 -3.56,13.69 -17,16 a 1.73,1.73 0 0 0 -0.92,2.91 1.75,1.75 0 0 0 1.52,0.48 c 15.68,-2.71 19.58,-17.92 19.74,-18.57 z"
           class="cls-2" />
        <path
           style="fill:#bbcc00"
           inkscape:connector-curvature="0"
           id="path4501"
           d="m 133.17,112.4 a 1.673589,1.673589 0 1 0 -3.3,-0.56 c 0,0.22 -4,22.3 -26.19,24.47 a 1.6731557,1.6731557 0 0 0 0.33,3.33 c 24.67,-2.41 29.12,-26.99 29.16,-27.24 z"
           class="cls-2" />
        <path
           style="fill:#bbcc00"
           inkscape:connector-curvature="0"
           id="path4503"
           d="m 134.25,128.49 a 46.66,46.66 0 0 0 6.35,-16.49 1.761427,1.761427 0 0 0 -3.49,-0.48 43.59,43.59 0 0 1 -5.91,15.25 c -6.33,10.1 -15.82,15.65 -28.2,16.48 a 1.75,1.75 0 0 0 -1.12,3 1.71,1.71 0 0 0 1.36,0.51 c 16.96,-1.17 26.23,-10.58 31.01,-18.27 z"
           class="cls-2" />
        <path
           style="fill:#bbcc00"
           inkscape:connector-curvature="0"
           id="path4505"
           d="m 126.56,224.31 a 1.72,1.72 0 0 0 0.82,-3.34 c -0.56,-0.14 -13.68,-3.56 -16,-17 a 1.72,1.72 0 0 0 -2,-1.4 1.67,1.67 0 0 0 -0.91,0.47 1.72,1.72 0 0 0 -0.48,1.52 c 2.71,15.69 17.92,19.59 18.57,19.75 z"
           class="cls-2" />
        <path
           style="fill:#bbcc00"
           inkscape:connector-curvature="0"
           id="path4507"
           d="m 127.85,232.06 a 1.6727597,1.6727597 0 0 0 0.55,-3.3 c -0.22,0 -22.3,-4 -24.47,-26.18 a 1.67,1.67 0 0 0 -1.82,-1.51 1.67,1.67 0 0 0 -1.5,1.83 c 2.39,24.67 26.99,29.1 27.24,29.16 z"
           class="cls-2" />
        <path
           style="fill:#bbcc00"
           inkscape:connector-curvature="0"
           id="path4509"
           d="m 111.76,233.15 a 46.74,46.74 0 0 0 16.51,6.34 1.76,1.76 0 0 0 0.49,-3.48 43.76,43.76 0 0 1 -15.25,-5.91 C 103.4,223.76 97.86,214.27 97,201.89 a 1.76,1.76 0 0 0 -3,-1.12 1.79,1.79 0 0 0 -0.51,1.36 c 1.17,16.96 10.58,26.23 18.27,31.02 z"
           class="cls-2" />
        <path
           style="fill:#bbcc00"
           inkscape:connector-curvature="0"
           id="path4511"
           d="m 186.35,144.08 -3.06,3.06 A 6.79,6.79 0 1 1 180.1,144 l 4.39,-4.38 h 22.41 v -4.92 a 10.83,10.83 0 0 0 -10.83,-10.83 h -53.18 a 58.33,58.33 0 0 1 -3.31,6.13 46.84,46.84 0 0 1 -23,19.3 v 54 a 10.84,10.84 0 0 0 10.84,10.84 h 68.64 a 10.83,10.83 0 0 0 10.83,-10.84 v -10 h -6.44 a 6.79,6.79 0 1 1 0,-4.51 h 6.44 v -44.71 z"
           class="cls-2" />
      </g>
      <path
         d="M 154.99219,83 A 92.86,92.86 0 1 0 162.11914,268 92.87,92.87 0 0 0 243.42969,164.85938 92.86,92.86 0 0 0 154.99219,83 Z m -0.44336,12.5 A 80.31,80.31 0 0 1 151.21094,256.05078 80.32,80.32 0 0 1 70.900391,175.74023 80.31,80.31 0 0 1 154.54883,95.5 Z"
         id="path3351"
         style="fill:#002052;fill-opacity:1"
         inkscape:connector-curvature="0" />
    </g>
  </g>
</svg>
